<svg width="114" height="23" viewBox="0 0 114 23" fill="none" xmlns="http://www.w3.org/2000/svg">
<g clip-path="url(#clip0_328_1622)">
<mask id="mask0_328_1622" style="mask-type:luminance" maskUnits="userSpaceOnUse" x="0" y="0" width="114" height="23">
<path d="M113.206 0H0V22.6412H113.206V0Z" fill="white"/>
</mask>
<g mask="url(#mask0_328_1622)">
<path d="M44.336 4.37846H47.4655V5.51195C47.8015 5.20181 48.8865 4.10048 50.8902 4.10048C53.2481 4.10048 55.1214 5.94596 55.1214 8.84381V16.3659H51.8158V9.77618C51.8158 8.16065 51.0727 7.20237 49.7278 7.20237C48.4251 7.20237 47.6412 8.10594 47.6412 9.77618V16.3659H44.336V4.37846ZM75.822 10.3719C75.822 6.91383 78.4337 4.10048 81.8546 4.10048C85.274 4.10048 87.885 6.91383 87.885 10.3719C87.885 13.8291 85.274 16.6391 81.8546 16.6391C78.4337 16.6391 75.822 13.8291 75.822 10.3719ZM79.0846 10.3719C79.0846 12.0278 80.2515 13.3903 81.8742 13.3903C83.4982 13.3903 84.6673 12.0278 84.6673 10.3719C84.6673 8.71514 83.4982 7.3536 81.8742 7.3536C80.2523 7.3536 79.0846 8.71514 79.0846 10.3719ZM30.4244 10.3744C30.4244 6.91479 33.0376 4.10144 36.4551 4.10144C39.8766 4.10144 42.4889 6.91479 42.4889 10.3744C42.4889 13.8305 39.8766 16.6396 36.4551 16.6396C33.0372 16.64 30.4244 13.8305 30.4244 10.3744ZM33.6875 10.3734C33.6875 12.0302 34.8544 13.3927 36.4782 13.3927C38.1029 13.3927 39.2698 12.0302 39.2698 10.3734C39.2698 8.71513 38.1029 7.35504 36.4782 7.35504C34.8544 7.35504 33.6875 8.71513 33.6875 10.3734ZM103.92 3.05051H107.271V0H103.92V3.05051ZM103.92 16.3659H107.271V4.37846H103.92V16.3659ZM109.854 16.3659H113.206V0H109.854V16.3659ZM93.0003 16.3659H89.8225V0H93.0366V5.33C93.1955 5.20566 94.2368 4.10048 96.5111 4.10048C99.4864 4.10048 101.969 6.80917 101.969 10.3744C101.969 13.9328 99.3246 16.6415 96.4734 16.6415C94.3043 16.6415 93.2702 15.6313 93.0366 15.4432L93.0003 16.3659ZM98.5735 10.3652C98.5735 8.67959 97.3681 7.37184 95.7535 7.37184C94.149 7.37184 92.9168 8.66759 92.9168 10.3748C92.9168 12.0605 94.1323 13.3682 95.7499 13.3682C97.3522 13.3678 98.5735 12.0556 98.5735 10.3652ZM10.9357 16.3659H14.8114L18.2955 11.6187L20.4677 13.9515L15.497 20.5499H19.3863L22.5692 16.1768L28.5601 22.6412H33.2555L24.645 13.4613L31.426 4.37846H27.5344L22.523 11.2006L20.3545 8.8894L25.9292 1.44604H22.0481L18.2407 6.6397L16.1731 4.37846H11.5425L16.2066 9.37098L10.9357 16.3659ZM0 0V16.3659H10.1663V13.3121H3.45867V9.40169H9.86526V6.44142H3.45867V3.04908H10.1663V0H0ZM57.7691 0V16.3659H61.0217V4.00879H61.1693L63.9678 16.3664H67.6217L70.4858 4.00879H70.6338V16.3664H73.8859V0H68.5748L65.9304 11.9442H65.8126L63.2337 0H57.7691Z" fill="#040020"/>
</g>
</g>
<defs>
<clipPath id="clip0_328_1622">
<rect width="113.206" height="22.6412" fill="white"/>
</clipPath>
</defs>
</svg>
