<svg width="122" height="33" viewBox="0 0 122 33" fill="none" xmlns="http://www.w3.org/2000/svg">
<g clip-path="url(#clip0_189_604)">
<path d="M16.1563 0.491943L0.405029 19.4821H14.5812L13.0061 32.1422L28.7574 13.152H14.5812L16.1563 0.491943Z" fill="#7B8F94"/>
<path d="M51.0577 13.7291V19.587H42.6474V27.6108H36.0393V3.82367H52.8245V9.68168H42.6474V13.7291H51.0577Z" fill="#7B8F94"/>
<path d="M62.0406 3.82367V27.6108H55.9624V3.82367H62.0406Z" fill="#7B8F94"/>
<path d="M72.0693 8.97162C73.0115 8.97162 73.9302 9.18462 74.8254 9.61067C75.7445 10.013 76.498 10.5337 77.0871 11.1728V9.50413H83.1653V27.6108H77.0871V24.5929C76.6397 25.5869 75.9565 26.4272 75.0377 27.1136C74.119 27.8 73.0115 28.1431 71.716 28.1431C70.3731 28.1431 69.1125 27.8 67.9348 27.1136C66.7569 26.4272 65.7908 25.3739 65.0372 23.9538C64.3069 22.5102 63.9415 20.6996 63.9415 18.5219C63.9415 16.4865 64.3069 14.7586 65.0372 13.3384C65.7908 11.9183 66.7805 10.8415 68.0053 10.1076C69.2542 9.3503 70.6085 8.97162 72.0693 8.97162ZM73.3415 14.9361C72.4699 14.9361 71.7395 15.2912 71.1505 16.0012C70.585 16.7112 70.3024 17.5515 70.3024 18.5219C70.3024 19.4923 70.5967 20.3089 71.1858 20.9717C71.7749 21.6345 72.5523 21.9657 73.5182 21.9657C74.0363 21.9657 74.5664 21.8356 75.1084 21.5753C75.65 21.2911 76.1095 20.8771 76.4863 20.3326C76.8869 19.7644 77.0871 19.0426 77.0871 18.1669V16.4272C76.569 16.0012 75.98 15.6462 75.3203 15.3622C74.6842 15.0781 74.0245 14.9361 73.3415 14.9361Z" fill="#7B8F94"/>
<path d="M92.5932 8.97162C93.7713 8.97162 94.8549 9.14913 95.844 9.50413C96.8576 9.83554 97.6703 10.2971 98.2822 10.8888V15.6817C97.6703 15.303 96.9749 14.948 96.1978 14.6166C95.4208 14.2615 94.5837 14.0841 93.6885 14.0841C93.1234 14.0841 92.6167 14.2024 92.1693 14.4391C91.745 14.6521 91.5331 14.9953 91.5331 15.4686C91.5331 15.8001 91.6626 16.0486 91.9217 16.2143C92.181 16.3799 92.6873 16.5575 93.4413 16.7468L94.5368 17.0308C97.6703 17.8356 99.2366 19.5278 99.2366 22.1077C99.2366 23.2912 98.8837 24.3444 98.1761 25.2675C97.4929 26.1669 96.5864 26.877 95.4555 27.3979C94.3481 27.8946 93.1469 28.1431 91.8511 28.1431C90.5084 28.1431 89.2597 27.9539 88.1054 27.5753C86.9509 27.1727 85.9615 26.6877 85.137 26.1195V21.3621C85.985 21.8829 86.9391 22.3206 87.9994 22.6758C89.0831 23.0307 90.0489 23.2085 90.8969 23.2085C91.5802 23.2085 92.0751 23.1254 92.3812 22.9597C92.7109 22.7941 92.8758 22.4984 92.8758 22.0722C92.8758 21.7409 92.6873 21.4922 92.3105 21.3266C91.9335 21.1373 91.3918 20.9244 90.685 20.6874L88.8829 20.1197C87.5635 19.7171 86.5977 19.09 85.985 18.2379C85.3724 17.3622 85.0663 16.297 85.0663 15.0427C85.0663 13.7882 85.396 12.7113 86.0557 11.8119C86.7154 10.9125 87.6106 10.2142 88.7413 9.71721C89.8958 9.22014 91.1796 8.97162 92.5932 8.97162Z" fill="#7B8F94"/>
<path d="M111.774 8.97164C113.612 8.97164 115.108 9.5988 116.262 10.8533C117.44 12.1077 118.029 13.9657 118.029 16.4273V27.6108H111.951L111.916 17.3859C111.916 16.4865 111.668 15.8592 111.174 15.5042C110.679 15.1255 110.126 14.9361 109.513 14.9361C108.853 14.9361 108.299 15.1137 107.852 15.4687C107.404 15.8001 107.015 16.2024 106.686 16.6758V27.6108H100.608V3.82367H106.686V11.8473C107.251 11.0663 107.934 10.3917 108.736 9.82367C109.56 9.25565 110.573 8.97164 111.774 8.97164Z" fill="#7B8F94"/>
<path d="M117.723 3.96216V4.71753H116.819V7.01577H115.959V4.71753H115.054V3.96216H117.723Z" fill="#7B8F94"/>
<path d="M121.251 3.91644V7.02957H120.392V5.5188L119.763 6.2284H119.506L118.876 5.5188V7.02957H118.016V3.91644H118.32L119.634 5.2441L120.948 3.91644H121.251Z" fill="#7B8F94"/>
</g>
<defs>
<clipPath id="clip0_189_604">
<rect width="122" height="33" fill="white"/>
</clipPath>
</defs>
</svg>
