<svg width="88" height="23" viewBox="0 0 88 23" fill="none" xmlns="http://www.w3.org/2000/svg">
<g clip-path="url(#clip0_328_1629)">
<path d="M33.6628 6.85028V22.5592H29.8395V16.0922H23.8921V22.5592H20.0688V6.85028H23.8921V13.0041H29.8395V6.85028H33.6628Z" fill="#040020"/>
<path d="M37.451 8.77467C36.7801 8.77467 36.2287 8.58074 35.7965 8.1929C35.3791 7.79009 35.1704 7.29779 35.1704 6.71599C35.1704 6.11927 35.3791 5.62696 35.7965 5.23907C36.2287 4.8363 36.7801 4.63489 37.451 4.63489C38.1067 4.63489 38.6436 4.8363 39.0607 5.23907C39.4931 5.62696 39.7091 6.11927 39.7091 6.71599C39.7091 7.29779 39.4931 7.79009 39.0607 8.1929C38.6436 8.58074 38.1067 8.77467 37.451 8.77467ZM39.3514 10.0726V22.5591H35.5282V10.0726H39.3514Z" fill="#040020"/>
<path d="M48.1814 19.3143V22.5592H46.2363C44.85 22.5592 43.7694 22.2234 42.9945 21.5521C42.2193 20.8659 41.8319 19.7544 41.8319 18.2177V13.2502H40.3115V10.0725H41.8319V7.02924H45.6551V10.0725H48.1591V13.2502H45.6551V18.2628C45.6551 18.6355 45.7445 18.9041 45.9233 19.0683C46.1023 19.2322 46.4004 19.3143 46.8178 19.3143H48.1814Z" fill="#040020"/>
<path d="M61.1769 16.1145C61.1769 16.4725 61.1546 16.8456 61.1099 17.2333H52.4572C52.5169 18.0092 52.7629 18.6059 53.1951 19.0237C53.6421 19.4264 54.1863 19.6276 54.8271 19.6276C55.7813 19.6276 56.4445 19.2249 56.8172 18.4193H60.8862C60.6775 19.2399 60.2974 19.9783 59.746 20.6347C59.2095 21.2911 58.5313 21.8057 57.7115 22.1788C56.8916 22.5518 55.975 22.7381 54.9614 22.7381C53.7391 22.7381 52.6509 22.4771 51.697 21.9548C50.7431 21.4329 49.9979 20.6868 49.4611 19.7171C48.9246 18.7477 48.6562 17.6138 48.6562 16.3157C48.6562 15.018 48.9173 13.8842 49.4388 12.9145C49.9756 11.9448 50.7207 11.1989 51.6747 10.6768C52.6286 10.1546 53.7242 9.89355 54.9614 9.89355C56.1687 9.89355 57.242 10.1472 58.1809 10.6544C59.1201 11.1616 59.8503 11.8852 60.3721 12.825C60.9085 13.7649 61.1769 14.8613 61.1769 16.1145ZM57.2643 15.1074C57.2643 14.4511 57.0406 13.929 56.5935 13.5411C56.1464 13.1532 55.5873 12.9593 54.9168 12.9593C54.2756 12.9593 53.7318 13.1458 53.2844 13.5187C52.8522 13.8917 52.5839 14.4213 52.4795 15.1074H57.2643Z" fill="#040020"/>
<path d="M61.5396 16.3157C61.5396 15.018 61.8003 13.8842 62.322 12.9145C62.8585 11.9448 63.5964 11.1989 64.5356 10.6768C65.4895 10.1546 66.5774 9.89355 67.7998 9.89355C69.3648 9.89355 70.6691 10.3038 71.7123 11.1243C72.7709 11.9448 73.4638 13.101 73.7918 14.5928H69.7226C69.3797 13.638 68.7166 13.1606 67.7327 13.1606C67.0322 13.1606 66.4731 13.4366 66.0559 13.9886C65.6385 14.5257 65.4298 15.3013 65.4298 16.3157C65.4298 17.3302 65.6385 18.1137 66.0559 18.6656C66.4731 19.2025 67.0322 19.4712 67.7327 19.4712C68.7166 19.4712 69.3797 18.9936 69.7226 18.0389H73.7918C73.4638 19.5008 72.7709 20.6498 71.7123 21.485C70.6541 22.3205 69.3501 22.7381 67.7998 22.7381C66.5774 22.7381 65.4895 22.4771 64.5356 21.9548C63.5964 21.4329 62.8585 20.6868 62.322 19.7171C61.8003 18.7477 61.5396 17.6138 61.5396 16.3157Z" fill="#040020"/>
<path d="M82.6115 9.9383C84.0429 9.9383 85.1903 10.4156 86.0545 11.3705C86.9195 12.3103 87.3521 13.6082 87.3521 15.2642V22.5591H83.5513V15.7787C83.5513 14.9435 83.3346 14.2944 82.9021 13.832C82.4704 13.3695 81.8888 13.1383 81.1583 13.1383C80.4281 13.1383 79.8467 13.3695 79.4145 13.832C78.9822 14.2944 78.7661 14.9435 78.7661 15.7787V22.5591H74.9429V5.99988H78.7661V11.7509C79.1535 11.1989 79.6827 10.7588 80.3535 10.4306C81.0243 10.1024 81.7771 9.9383 82.6115 9.9383Z" fill="#040020"/>
<path d="M0.272461 14.3479V0.764587H4.79736V7.74706C5.58709 7.44194 6.44533 7.27466 7.34261 7.27466C11.2473 7.27466 14.4126 10.4428 14.4126 14.3509V22.5592H9.88787V14.3509C9.88787 12.9439 8.74829 11.8034 7.34261 11.8034C5.93752 11.8034 4.79835 12.9429 4.79736 14.349V14.3509V22.5592H0.272461V14.3509V14.3479Z" fill="#040020"/>
<path d="M9.8877 5.29333V0.764587H14.4125V5.29333H9.8877Z" fill="#040020"/>
</g>
<defs>
<clipPath id="clip0_328_1629">
<rect width="87.8182" height="23" fill="white"/>
</clipPath>
</defs>
</svg>
