<svg width="86" height="23" viewBox="0 0 86 23" fill="none" xmlns="http://www.w3.org/2000/svg">
<path d="M11.2604 0.342834L0.282227 13.5784H10.1626L9.06478 22.4021L20.043 9.16654H10.1626L11.2604 0.342834Z" fill="#040020"/>
<path d="M35.5855 9.56869V13.6515H29.7238V19.2438H25.1182V2.66492H36.817V6.74777H29.7238V9.56869H35.5855Z" fill="#040020"/>
<path d="M43.2402 2.66492V19.2438H39.0039V2.66492H43.2402Z" fill="#040020"/>
<path d="M50.2302 6.25293C50.8869 6.25293 51.5273 6.40138 52.1512 6.69833C52.7917 6.97873 53.3169 7.34167 53.7275 7.78708V6.62407H57.9638V19.2438H53.7275V17.1405C53.4156 17.8333 52.9395 18.4189 52.2991 18.8973C51.6588 19.3757 50.8869 19.6149 49.984 19.6149C49.048 19.6149 48.1695 19.3757 47.3486 18.8973C46.5277 18.4189 45.8543 17.6848 45.3291 16.695C44.8201 15.6889 44.5654 14.427 44.5654 12.9092C44.5654 11.4905 44.8201 10.2863 45.3291 9.29647C45.8543 8.30669 46.5441 7.55616 47.3978 7.04471C48.2682 6.51686 49.2121 6.25293 50.2302 6.25293ZM51.117 10.41C50.5094 10.41 50.0004 10.6575 49.5899 11.1523C49.1957 11.6472 48.9988 12.2329 48.9988 12.9092C48.9988 13.5855 49.2039 14.1547 49.6145 14.6166C50.025 15.0785 50.5669 15.3094 51.2401 15.3094C51.6012 15.3094 51.9707 15.2187 52.3484 15.0373C52.7259 14.8392 53.0462 14.5507 53.3088 14.1712C53.588 13.7752 53.7275 13.2721 53.7275 12.6618V11.4493C53.3664 11.1523 52.9559 10.9049 52.4961 10.707C52.0527 10.509 51.5929 10.41 51.117 10.41Z" fill="#040020"/>
<path d="M64.5346 6.25293C65.3557 6.25293 66.1109 6.37665 66.8003 6.62407C67.5068 6.85506 68.0732 7.17673 68.4996 7.58915V10.9297C68.0732 10.6657 67.5885 10.4183 67.0469 10.1873C66.5054 9.93982 65.9219 9.81614 65.298 9.81614C64.9041 9.81614 64.551 9.89861 64.2392 10.0636C63.9435 10.2121 63.7958 10.4513 63.7958 10.7812C63.7958 11.0121 63.886 11.1854 64.0666 11.3008C64.2473 11.4163 64.6002 11.54 65.1257 11.672L65.8892 11.8699C68.0732 12.4308 69.1648 13.6103 69.1648 15.4084C69.1648 16.2333 68.9189 16.9673 68.4257 17.6106C67.9496 18.2375 67.3177 18.7325 66.5296 19.0955C65.7577 19.4417 64.9205 19.6149 64.0174 19.6149C63.0816 19.6149 62.2113 19.483 61.4067 19.2191C60.6021 18.9385 59.9125 18.6005 59.3378 18.2045V14.8887C59.9289 15.2517 60.5939 15.5567 61.3329 15.8044C62.0882 16.0517 62.7613 16.1756 63.3524 16.1756C63.8286 16.1756 64.1735 16.1177 64.3869 16.0022C64.6166 15.8868 64.7316 15.6807 64.7316 15.3837C64.7316 15.1527 64.6002 14.9794 64.3376 14.864C64.0748 14.732 63.6973 14.5836 63.2047 14.4185L61.9487 14.0228C61.0291 13.7422 60.3559 13.3051 59.9289 12.7113C59.5019 12.1009 59.2886 11.3585 59.2886 10.4843C59.2886 9.60993 59.5184 8.85934 59.9782 8.23249C60.438 7.60565 61.0619 7.11897 61.8499 6.77259C62.6546 6.42614 63.5494 6.25293 64.5346 6.25293Z" fill="#040020"/>
<path d="M77.9035 6.2529C79.1842 6.2529 80.2268 6.69001 81.0313 7.56434C81.8522 8.43867 82.2629 9.73363 82.2629 11.4492V19.2438H78.0265L78.0023 12.1174C78.0023 11.4905 77.8296 11.0533 77.4849 10.8059C77.1402 10.5419 76.7543 10.41 76.3272 10.41C75.8673 10.41 75.4814 10.5337 75.1694 10.7811C74.8574 11.0121 74.5867 11.2925 74.3571 11.6225V19.2438H70.1206V2.66492H74.3571V8.25716C74.7508 7.71279 75.227 7.24267 75.7856 6.84674C76.3599 6.45084 77.0663 6.2529 77.9035 6.2529Z" fill="#040020"/>
<path d="M82.0497 2.76147V3.28794H81.4191V4.88975H80.82V3.28794H80.1895V2.76147H82.0497Z" fill="#040020"/>
<path d="M84.508 2.72961V4.89937H83.9096V3.84641L83.4707 4.34098H83.2914L82.8526 3.84641V4.89937H82.2534V2.72961H82.4653L83.381 3.65495L84.2968 2.72961H84.508Z" fill="#040020"/>
</svg>
