<svg width="165" height="33" viewBox="0 0 165 33" fill="none" xmlns="http://www.w3.org/2000/svg">
<g clip-path="url(#clip0_189_579)">
<mask id="mask0_189_579" style="mask-type:luminance" maskUnits="userSpaceOnUse" x="0" y="0" width="165" height="33">
<path d="M165 0H0V33H165V0Z" fill="white"/>
</mask>
<g mask="url(#mask0_189_579)">
<path d="M64.6206 6.38168H69.1819V8.03377C69.6716 7.58174 71.2529 5.97653 74.1734 5.97653C77.6101 5.97653 80.3405 8.66635 80.3405 12.89V23.8536H75.5225V14.249C75.5225 11.8943 74.4394 10.4976 72.4792 10.4976C70.5804 10.4976 69.4379 11.8146 69.4379 14.249V23.8536H64.6206V6.38168ZM110.512 15.1173C110.512 10.077 114.319 5.97653 119.305 5.97653C124.288 5.97653 128.094 10.077 128.094 15.1173C128.094 20.1562 124.288 24.2518 119.305 24.2518C114.319 24.2518 110.512 20.1562 110.512 15.1173ZM115.267 15.1173C115.267 17.5307 116.968 19.5166 119.333 19.5166C121.7 19.5166 123.404 17.5307 123.404 15.1173C123.404 12.7025 121.7 10.718 119.333 10.718C116.969 10.718 115.267 12.7025 115.267 15.1173ZM44.3441 15.1208C44.3441 10.0784 48.1529 5.97793 53.1339 5.97793C58.1209 5.97793 61.9284 10.0784 61.9284 15.1208C61.9284 20.1583 58.1209 24.2525 53.1339 24.2525C48.1523 24.2531 44.3441 20.1583 44.3441 15.1208ZM49.1001 15.1194C49.1001 17.5342 50.8009 19.5201 53.1677 19.5201C55.5357 19.5201 57.2365 17.5342 57.2365 15.1194C57.2365 12.7025 55.5357 10.7201 53.1677 10.7201C50.8009 10.7201 49.1001 12.7025 49.1001 15.1194ZM151.466 4.44618H156.349V0H151.466V4.44618ZM151.466 23.8536H156.349V6.38168H151.466V23.8536ZM160.115 23.8536H165V0H160.115V23.8536ZM135.55 23.8536H130.918V0H135.602V7.76857C135.834 7.58734 137.352 5.97653 140.667 5.97653C145.003 5.97653 148.622 9.92449 148.622 15.1208C148.622 20.3073 144.767 24.2553 140.612 24.2553C137.45 24.2553 135.943 22.783 135.602 22.5088L135.55 23.8536ZM143.673 15.1075C143.673 12.6507 141.916 10.7446 139.562 10.7446C137.224 10.7446 135.428 12.6332 135.428 15.1215C135.428 17.5783 137.2 19.4844 139.557 19.4844C141.893 19.4838 143.673 17.5713 143.673 15.1075ZM15.939 23.8536H21.5879L26.666 16.9345L29.832 20.3346L22.5872 29.9519H28.2559L32.8951 23.5779L41.6269 33H48.4704L35.9205 19.6202L45.804 6.38168H40.1319L32.8277 16.3251L29.667 12.9565L37.7923 2.10763H32.1354L26.5862 9.67748L23.5726 6.38168H16.8234L23.6214 13.6584L15.939 23.8536ZM0 0V23.8536H14.8176V19.4026H5.04108V13.7031H14.3788V9.38849H5.04108V4.44409H14.8176V0H0ZM84.1995 0V23.8536H88.9403V5.84288H89.1554L93.2342 23.8544H98.5598L102.734 5.84288H102.95V23.8544H107.69V0H99.9491L96.0947 17.4089H95.9231L92.1643 0H84.1995Z" fill="#7B8F94"/>
</g>
</g>
<defs>
<clipPath id="clip0_189_579">
<rect width="165" height="33" fill="white"/>
</clipPath>
</defs>
</svg>
