<svg width="122" height="33" viewBox="0 0 122 33" fill="none" xmlns="http://www.w3.org/2000/svg">
<g clip-path="url(#clip0_219_4488)">
<path d="M16.1563 0.491913L0.405029 19.4821H14.5812L13.0061 32.1422L28.7574 13.152H14.5812L16.1563 0.491913Z" fill="white"/>
<path d="M51.0577 13.729V19.5869H42.6474V27.6107H36.0393V3.82361H52.8245V9.68162H42.6474V13.729H51.0577Z" fill="white"/>
<path d="M62.0406 3.82361V27.6107H55.9624V3.82361H62.0406Z" fill="white"/>
<path d="M72.0694 8.97159C73.0116 8.97159 73.9304 9.18459 74.8256 9.61064C75.7446 10.013 76.4982 10.5337 77.0872 11.1728V9.5041H83.1655V27.6107H77.0872V24.5928C76.6398 25.5869 75.9566 26.4272 75.0378 27.1136C74.1191 27.8 73.0116 28.1431 71.7161 28.1431C70.3732 28.1431 69.1127 27.8 67.9349 27.1136C66.757 26.4272 65.7909 25.3739 65.0373 23.9538C64.307 22.5101 63.9417 20.6996 63.9417 18.5219C63.9417 16.4864 64.307 14.7585 65.0373 13.3384C65.7909 11.9183 66.7806 10.8414 68.0055 10.1076C69.2543 9.35027 70.6087 8.97159 72.0694 8.97159ZM73.3417 14.9361C72.47 14.9361 71.7396 15.2912 71.1506 16.0011C70.5851 16.7112 70.3025 17.5515 70.3025 18.5219C70.3025 19.4923 70.5968 20.3089 71.1859 20.9717C71.775 21.6344 72.5524 21.9656 73.5183 21.9656C74.0364 21.9656 74.5665 21.8355 75.1085 21.5753C75.6501 21.291 76.1096 20.877 76.4864 20.3325C76.8871 19.7644 77.0872 19.0426 77.0872 18.1669V16.4272C76.5691 16.0011 75.9801 15.6461 75.3204 15.3622C74.6843 15.0781 74.0246 14.9361 73.3417 14.9361Z" fill="white"/>
<path d="M92.5933 8.97159C93.7714 8.97159 94.855 9.1491 95.8442 9.5041C96.8577 9.83551 97.6704 10.297 98.2823 10.8888V15.6817C97.6704 15.3029 96.975 14.948 96.198 14.6165C95.4209 14.2615 94.5838 14.084 93.6886 14.084C93.1235 14.084 92.6168 14.2024 92.1694 14.4391C91.7452 14.6521 91.5333 14.9953 91.5333 15.4686C91.5333 15.8 91.6628 16.0486 91.9218 16.2142C92.1812 16.3799 92.6875 16.5574 93.4414 16.7467L94.5369 17.0307C97.6704 17.8356 99.2367 19.5278 99.2367 22.1076C99.2367 23.2912 98.8838 24.3444 98.1762 25.2674C97.493 26.1668 96.5865 26.877 95.4556 27.3978C94.3483 27.8946 93.147 28.1431 91.8512 28.1431C90.5085 28.1431 89.2598 27.9538 88.1055 27.5753C86.951 27.1727 85.9616 26.6877 85.1371 26.1195V21.362C85.9852 21.8829 86.9392 22.3205 87.9996 22.6758C89.0832 23.0307 90.049 23.2084 90.8971 23.2084C91.5804 23.2084 92.0752 23.1254 92.3813 22.9597C92.711 22.794 92.8759 22.4984 92.8759 22.0722C92.8759 21.7409 92.6875 21.4921 92.3107 21.3266C91.9336 21.1373 91.3919 20.9244 90.6852 20.6874L88.883 20.1196C87.5637 19.717 86.5978 19.0899 85.9852 18.2379C85.3725 17.3622 85.0664 16.297 85.0664 15.0426C85.0664 13.7882 85.3961 12.7112 86.0558 11.8118C86.7156 10.9124 87.6108 10.2142 88.7414 9.71718C89.8959 9.22011 91.1797 8.97159 92.5933 8.97159Z" fill="white"/>
<path d="M111.774 8.97158C113.612 8.97158 115.108 9.59874 116.262 10.8532C117.44 12.1077 118.029 13.9657 118.029 16.4272V27.6107H111.951L111.916 17.3858C111.916 16.4864 111.668 15.8591 111.174 15.5041C110.679 15.1254 110.126 14.9361 109.513 14.9361C108.853 14.9361 108.299 15.1136 107.852 15.4686C107.404 15.8 107.015 16.2023 106.686 16.6757V27.6107H100.608V3.82361H106.686V11.8473C107.251 11.0662 107.934 10.3917 108.736 9.82361C109.56 9.25559 110.573 8.97158 111.774 8.97158Z" fill="white"/>
<path d="M117.723 3.96213V4.7175H116.819V7.01574H115.959V4.7175H115.054V3.96213H117.723Z" fill="white"/>
<path d="M121.251 3.91638V7.02951H120.392V5.51874L119.763 6.22834H119.505L118.876 5.51874V7.02951H118.016V3.91638H118.32L119.634 5.24404L120.948 3.91638H121.251Z" fill="white"/>
</g>
<defs>
<clipPath id="clip0_219_4488">
<rect width="122" height="33" fill="white"/>
</clipPath>
</defs>
</svg>
