<svg width="126" height="33" viewBox="0 0 126 33" fill="none" xmlns="http://www.w3.org/2000/svg">
<path d="M48.2985 9.82861V32.3675H42.8129V23.0887H34.2798V32.3675H28.7942V9.82861H34.2798V18.658H42.8129V9.82861H48.2985Z" fill="white"/>
<path d="M53.7343 12.5898C52.7717 12.5898 51.9805 12.3116 51.3605 11.7551C50.7616 11.1772 50.4622 10.4708 50.4622 9.63607C50.4622 8.77991 50.7616 8.07355 51.3605 7.51702C51.9805 6.93913 52.7717 6.65015 53.7343 6.65015C54.6752 6.65015 55.4454 6.93913 56.0438 7.51702C56.6643 8.07355 56.9742 8.77991 56.9742 9.63607C56.9742 10.4708 56.6643 11.1772 56.0438 11.7551C55.4454 12.3116 54.6752 12.5898 53.7343 12.5898ZM56.4609 14.4521V32.3676H50.9755V14.4521H56.4609Z" fill="white"/>
<path d="M69.1297 27.7118V32.3675H66.3389C64.3499 32.3675 62.7995 31.8858 61.6876 30.9226C60.5754 29.9381 60.0196 28.3433 60.0196 26.1385V19.0111H57.8381V14.4519H60.0196V10.0854H65.5051V14.4519H69.0977V19.0111H65.5051V26.2031C65.5051 26.7379 65.6333 27.1233 65.8898 27.3589C66.1466 27.5941 66.5743 27.7118 67.1732 27.7118H69.1297Z" fill="white"/>
<path d="M87.7759 23.1207C87.7759 23.6345 87.7439 24.1697 87.6799 24.7261H75.2651C75.3507 25.8392 75.7036 26.6954 76.3237 27.2948C76.9651 27.8726 77.7459 28.1614 78.6653 28.1614C80.0344 28.1614 80.986 27.5835 81.5207 26.4277H87.3588C87.0594 27.605 86.5141 28.6645 85.7229 29.6063C84.9531 30.5481 83.98 31.2864 82.8038 31.8217C81.6275 32.3569 80.3124 32.6242 78.8581 32.6242C77.1043 32.6242 75.543 32.2497 74.1743 31.5004C72.8057 30.7515 71.7365 29.681 70.9664 28.2897C70.1966 26.8988 69.8115 25.2719 69.8115 23.4095C69.8115 21.5475 70.1861 19.9208 70.9343 18.5295C71.7045 17.1382 72.7736 16.0679 74.1423 15.3188C75.511 14.5696 77.0829 14.1951 78.8581 14.1951C80.5903 14.1951 82.1302 14.559 83.4773 15.2867C84.8248 16.0144 85.8725 17.0526 86.6212 18.401C87.3909 19.7496 87.7759 21.3227 87.7759 23.1207ZM82.1622 21.6758C82.1622 20.7341 81.8412 19.985 81.1998 19.4285C80.5583 18.872 79.7561 18.5937 78.794 18.5937C77.8741 18.5937 77.0939 18.8613 76.4518 19.3963C75.8319 19.9315 75.4468 20.6914 75.2971 21.6758H82.1622Z" fill="white"/>
<path d="M88.2961 23.4095C88.2961 21.5475 88.6703 19.9208 89.4188 18.5295C90.1886 17.1382 91.2473 16.0679 92.5949 15.3188C93.9634 14.5696 95.5244 14.1951 97.2782 14.1951C99.5237 14.1951 101.395 14.7836 102.892 15.9609C104.411 17.1382 105.405 18.797 105.876 20.9374H100.037C99.5451 19.5676 98.5936 18.8826 97.182 18.8826C96.1769 18.8826 95.3748 19.2786 94.7762 20.0706C94.1773 20.8412 93.8778 21.954 93.8778 23.4095C93.8778 24.865 94.1773 25.9892 94.7762 26.781C95.3748 27.5513 96.1769 27.9369 97.182 27.9369C98.5936 27.9369 99.5451 27.2516 100.037 25.8819H105.876C105.405 27.9794 104.411 29.6279 102.892 30.8262C101.374 32.0251 99.5026 32.6242 97.2782 32.6242C95.5244 32.6242 93.9634 32.2497 92.5949 31.5004C91.2473 30.7515 90.1886 29.681 89.4188 28.2897C88.6703 26.8988 88.2961 25.2719 88.2961 23.4095Z" fill="white"/>
<path d="M118.529 14.2593C120.583 14.2593 122.229 14.9442 123.469 16.3141C124.711 17.6625 125.331 19.5248 125.331 21.9008V32.3675H119.878V22.6391C119.878 21.4407 119.567 20.5094 118.946 19.8458C118.327 19.1823 117.493 18.8505 116.444 18.8505C115.397 18.8505 114.563 19.1823 113.942 19.8458C113.322 20.5094 113.012 21.4407 113.012 22.6391V32.3675H107.527V8.60852H113.012V16.8599C113.568 16.0679 114.327 15.4366 115.29 14.9656C116.252 14.4948 117.332 14.2593 118.529 14.2593Z" fill="white"/>
<path d="M0.390869 20.5862V1.09705H6.88312V11.1154C8.01621 10.6776 9.2476 10.4376 10.535 10.4376C16.1374 10.4376 20.679 14.9831 20.679 20.5904V32.3675H14.1869V20.5904C14.1869 18.5717 12.5518 16.9354 10.535 16.9354C8.519 16.9354 6.88453 18.5703 6.88312 20.5877V20.5904V32.3675H0.390869V20.5904V20.5862Z" fill="white"/>
<path d="M14.1868 7.59481V1.09705H20.6788V7.59481H14.1868Z" fill="white"/>
</svg>
