<svg width="121" height="35" viewBox="0 0 121 35" fill="none" xmlns="http://www.w3.org/2000/svg">
<path d="M39.112 27V4.6H48.328C49.736 4.6 50.9733 4.888 52.04 5.464C53.128 6.01867 53.9707 6.808 54.568 7.832C55.1867 8.856 55.496 10.072 55.496 11.48V11.928C55.496 13.3147 55.176 14.5307 54.536 15.576C53.9173 16.6 53.064 17.4 51.976 17.976C50.9093 18.5307 49.6933 18.808 48.328 18.808H43.336V27H39.112ZM43.336 14.968H47.912C48.9147 14.968 49.7253 14.6907 50.344 14.136C50.9627 13.5813 51.272 12.824 51.272 11.864V11.544C51.272 10.584 50.9627 9.82667 50.344 9.272C49.7253 8.71733 48.9147 8.44 47.912 8.44H43.336V14.968ZM58.5525 27V4.6H62.5845V27H58.5525ZM71.9805 27.448C70.8498 27.448 69.8365 27.256 68.9405 26.872C68.0445 26.4667 67.3298 25.8907 66.7965 25.144C66.2845 24.376 66.0285 23.448 66.0285 22.36C66.0285 21.272 66.2845 20.3653 66.7965 19.64C67.3298 18.8933 68.0552 18.3387 68.9725 17.976C69.9112 17.592 70.9778 17.4 72.1725 17.4H76.5245V16.504C76.5245 15.7573 76.2898 15.1493 75.8205 14.68C75.3512 14.1893 74.6045 13.944 73.5805 13.944C72.5778 13.944 71.8312 14.1787 71.3405 14.648C70.8498 15.096 70.5298 15.6827 70.3805 16.408L66.6685 15.16C66.9245 14.3493 67.3298 13.6133 67.8845 12.952C68.4605 12.2693 69.2178 11.7253 70.1565 11.32C71.1165 10.8933 72.2792 10.68 73.6445 10.68C75.7352 10.68 77.3885 11.2027 78.6045 12.248C79.8205 13.2933 80.4285 14.808 80.4285 16.792V22.712C80.4285 23.352 80.7272 23.672 81.3245 23.672H82.6045V27H79.9165C79.1272 27 78.4765 26.808 77.9645 26.424C77.4525 26.04 77.1965 25.528 77.1965 24.888V24.856H76.5885C76.5032 25.112 76.3112 25.4533 76.0125 25.88C75.7138 26.2853 75.2445 26.648 74.6045 26.968C73.9645 27.288 73.0898 27.448 71.9805 27.448ZM72.6845 24.184C73.8152 24.184 74.7325 23.8747 75.4365 23.256C76.1618 22.616 76.5245 21.7733 76.5245 20.728V20.408H72.4605C71.7138 20.408 71.1272 20.568 70.7005 20.888C70.2738 21.208 70.0605 21.656 70.0605 22.232C70.0605 22.808 70.2845 23.2773 70.7325 23.64C71.1805 24.0027 71.8312 24.184 72.6845 24.184ZM84.1445 27L89.9045 19L84.2085 11.128H88.8805L92.4965 16.408H93.0725L96.6885 11.128H101.361L95.6645 19L101.425 27H96.6885L93.0725 21.656H92.4965L88.8805 27H84.1445ZM109.168 27.448C108.037 27.448 107.024 27.256 106.128 26.872C105.232 26.4667 104.517 25.8907 103.984 25.144C103.472 24.376 103.216 23.448 103.216 22.36C103.216 21.272 103.472 20.3653 103.984 19.64C104.517 18.8933 105.243 18.3387 106.16 17.976C107.099 17.592 108.165 17.4 109.36 17.4H113.712V16.504C113.712 15.7573 113.477 15.1493 113.008 14.68C112.539 14.1893 111.792 13.944 110.768 13.944C109.765 13.944 109.019 14.1787 108.528 14.648C108.037 15.096 107.717 15.6827 107.568 16.408L103.856 15.16C104.112 14.3493 104.517 13.6133 105.072 12.952C105.648 12.2693 106.405 11.7253 107.344 11.32C108.304 10.8933 109.467 10.68 110.832 10.68C112.923 10.68 114.576 11.2027 115.792 12.248C117.008 13.2933 117.616 14.808 117.616 16.792V22.712C117.616 23.352 117.915 23.672 118.512 23.672H119.792V27H117.104C116.315 27 115.664 26.808 115.152 26.424C114.64 26.04 114.384 25.528 114.384 24.888V24.856H113.776C113.691 25.112 113.499 25.4533 113.2 25.88C112.901 26.2853 112.432 26.648 111.792 26.968C111.152 27.288 110.277 27.448 109.168 27.448ZM109.872 24.184C111.003 24.184 111.92 23.8747 112.624 23.256C113.349 22.616 113.712 21.7733 113.712 20.728V20.408H109.648C108.901 20.408 108.315 20.568 107.888 20.888C107.461 21.208 107.248 21.656 107.248 22.232C107.248 22.808 107.472 23.2773 107.92 23.64C108.368 24.0027 109.019 24.184 109.872 24.184Z" fill="white"/>
<path d="M22.1811 0H9.95473L8.22784 5.66836H1.73474L18.0366 14.5664L22.1811 0Z" fill="url(#paint0_linear_189_216)"/>
<path d="M6.57003 11.6663L21.4213 19.7733L16.1715 21.2893L15.1354 28.0352H34L31.907 34.9988C22.3516 34.9329 0.228889 34.8406 0.00784717 34.9988C-0.213195 35.157 4.29053 19.5097 6.57003 11.6663Z" fill="url(#paint1_linear_189_216)"/>
<defs>
<linearGradient id="paint0_linear_189_216" x1="0" y1="0" x2="35.6462" y2="1.76562" gradientUnits="userSpaceOnUse">
<stop stop-color="#400D64"/>
<stop offset="0.494792" stop-color="#7B13FF"/>
<stop offset="1" stop-color="#FF82F3"/>
</linearGradient>
<linearGradient id="paint1_linear_189_216" x1="0" y1="0" x2="35.6462" y2="1.76562" gradientUnits="userSpaceOnUse">
<stop stop-color="#400D64"/>
<stop offset="0.494792" stop-color="#7B13FF"/>
<stop offset="1" stop-color="#FF82F3"/>
</linearGradient>
</defs>
</svg>
